<svg width="28" height="28" viewBox="0 0 28 28" fill="none" xmlns="http://www.w3.org/2000/svg">
<path d="M0.833984 0.5H3.43065C4.59065 0.5 5.17065 0.5 5.60732 0.815C6.04398 1.13 6.22732 1.68 6.59398 2.78L7.50065 5.5" stroke="white" stroke-linecap="round"/>
<path d="M24.167 22.166H8.41705C8.17538 22.166 8.05372 22.166 7.96038 22.156C7.72897 22.1302 7.50554 22.0562 7.30448 21.9387C7.10343 21.8213 6.92921 21.663 6.79307 21.4741C6.65693 21.2852 6.56188 21.0699 6.51405 20.842C6.46623 20.6141 6.46668 20.3787 6.51538 20.151C6.5537 20.0035 6.59875 19.8578 6.65038 19.7143C6.73705 19.4577 6.77872 19.3293 6.82705 19.2143C7.0643 18.6461 7.45433 18.1547 7.95387 17.7946C8.45341 17.4345 9.04293 17.2198 9.65705 17.1743C9.78038 17.166 9.91538 17.166 10.1854 17.166H19.167" stroke="white" stroke-linecap="round" stroke-linejoin="round"/>
<path d="M18.6315 17.1667H13.5632C11.4298 17.1667 10.3632 17.1667 9.52983 16.6167C8.69483 16.0667 8.27483 15.0867 7.43483 13.1267L7.15317 12.47C5.80317 9.32 5.12983 7.74833 5.86983 6.62333C6.61317 5.5 8.3265 5.5 11.7498 5.5H20.5498C24.3832 5.5 26.2982 5.5 27.0215 6.745C27.7432 7.99 26.7932 9.65333 24.8915 12.98L24.4198 13.8083C23.4832 15.4467 23.0148 16.2667 22.2382 16.7167C21.4615 17.1667 20.5182 17.1667 18.6315 17.1667Z" stroke="white" stroke-linecap="round"/>
<path d="M23.3346 27.9993C24.2551 27.9993 25.0013 27.2532 25.0013 26.3327C25.0013 25.4122 24.2551 24.666 23.3346 24.666C22.4142 24.666 21.668 25.4122 21.668 26.3327C21.668 27.2532 22.4142 27.9993 23.3346 27.9993Z" fill="white"/>
<path d="M10.0007 27.9993C10.9211 27.9993 11.6673 27.2532 11.6673 26.3327C11.6673 25.4122 10.9211 24.666 10.0007 24.666C9.08018 24.666 8.33398 25.4122 8.33398 26.3327C8.33398 27.2532 9.08018 27.9993 10.0007 27.9993Z" fill="white"/>
</svg>
